<svg id="visual" viewBox="0 0 900 600" width="900" height="600" xmlns="http://www.w3.org/2000/svg" xmlns:xlink="http://www.w3.org/1999/xlink" version="1.1"><rect x="0" y="0" width="900" height="600" fill="#daebd2"></rect><defs><linearGradient id="grad1_0" x1="33.3%" y1="100%" x2="100%" y2="0%"><stop offset="20%" stop-color="#b2e6a0" stop-opacity="1"></stop><stop offset="80%" stop-color="#b2e6a0" stop-opacity="1"></stop></linearGradient></defs><defs><linearGradient id="grad1_1" x1="33.3%" y1="100%" x2="100%" y2="0%"><stop offset="20%" stop-color="#b2e6a0" stop-opacity="1"></stop><stop offset="80%" stop-color="#daebd2" stop-opacity="1"></stop></linearGradient></defs><defs><linearGradient id="grad2_0" x1="0%" y1="100%" x2="66.7%" y2="0%"><stop offset="20%" stop-color="#b2e6a0" stop-opacity="1"></stop><stop offset="80%" stop-color="#b2e6a0" stop-opacity="1"></stop></linearGradient></defs><defs><linearGradient id="grad2_1" x1="0%" y1="100%" x2="66.7%" y2="0%"><stop offset="20%" stop-color="#daebd2" stop-opacity="1"></stop><stop offset="80%" stop-color="#b2e6a0" stop-opacity="1"></stop></linearGradient></defs><g transform="translate(900, 600)"><path d="M-324.5 0C-328.8 -32 -333 -63.9 -313.4 -84C-293.8 -104 -250.4 -112.2 -235.6 -136C-220.8 -159.8 -234.6 -199.3 -224.9 -224.9C-215.1 -250.4 -181.6 -261.9 -151.5 -262.4C-121.4 -262.9 -94.6 -252.3 -69.9 -260.8C-45.2 -269.3 -22.6 -296.9 0 -324.5L0 0Z" fill="#c7e9b9"></path><path d="M-162.2 0C-164.4 -16 -166.5 -32 -156.7 -42C-146.9 -52 -125.2 -56.1 -117.8 -68C-110.4 -79.9 -117.3 -99.7 -112.4 -112.4C-107.5 -125.2 -90.8 -131 -75.8 -131.2C-60.7 -131.4 -47.3 -126.1 -34.9 -130.4C-22.6 -134.7 -11.3 -148.5 0 -162.2L0 0Z" fill="#b2e6a0"></path></g><g transform="translate(0, 0)"><path d="M324.5 0C328.5 32.5 332.4 65 311 83.3C289.6 101.7 242.9 105.9 231.2 133.5C219.6 161.1 243 212.1 229.5 229.5C215.9 246.9 165.3 230.7 134.5 233C103.7 235.2 92.6 256 73.5 274.3C54.4 292.7 27.2 308.6 0 324.5L0 0Z" fill="#c7e9b9"></path><path d="M162.2 0C164.2 16.2 166.2 32.5 155.5 41.7C144.8 50.8 121.4 53 115.6 66.7C109.8 80.5 121.5 106 114.7 114.7C107.9 123.4 82.7 115.3 67.3 116.5C51.8 117.6 46.3 128 36.8 137.2C27.2 146.3 13.6 154.3 0 162.2L0 0Z" fill="#b2e6a0"></path></g></svg>