<svg id="visual" viewBox="0 0 900 600" width="900" height="600" xmlns="http://www.w3.org/2000/svg" xmlns:xlink="http://www.w3.org/1999/xlink" version="1.1"><rect x="0" y="0" width="900" height="600" fill="#00a88d"></rect><defs><linearGradient id="grad1_0" x1="33.3%" y1="0%" x2="100%" y2="100%"><stop offset="20%" stop-color="#00a88d" stop-opacity="1"></stop><stop offset="80%" stop-color="#00a88d" stop-opacity="1"></stop></linearGradient></defs><defs><linearGradient id="grad2_0" x1="0%" y1="0%" x2="66.7%" y2="100%"><stop offset="20%" stop-color="#00a88d" stop-opacity="1"></stop><stop offset="80%" stop-color="#00a88d" stop-opacity="1"></stop></linearGradient></defs><g transform="translate(900, 0)"><path d="M0 486.7C-63 479.8 -126.1 472.8 -186.3 449.7C-246.5 426.6 -303.9 387.5 -336.6 336.6C-369.3 285.7 -377.3 223 -398.2 164.9C-419.1 106.9 -452.9 53.4 -486.7 0L0 0Z" fill="#00ceac"></path></g><g transform="translate(0, 600)"><path d="M0 -486.7C62.3 -478.1 124.6 -469.5 185.6 -448.1C246.6 -426.7 306.2 -392.6 344.2 -344.2C382.1 -295.8 398.4 -233.1 418.5 -173.4C438.7 -113.6 462.7 -56.8 486.7 0L0 0Z" fill="#00ceac"></path></g></svg>