<svg id="visual" viewBox="0 0 900 600" width="900" height="600" xmlns="http://www.w3.org/2000/svg" xmlns:xlink="http://www.w3.org/1999/xlink" version="1.1"><rect x="0" y="0" width="900" height="600" fill="#D5FFD1"></rect><defs><linearGradient id="grad1_0" x1="33.3%" y1="100%" x2="100%" y2="0%"><stop offset="20%" stop-color="#c1e0b6" stop-opacity="1"></stop><stop offset="80%" stop-color="#c1e0b6" stop-opacity="1"></stop></linearGradient></defs><defs><linearGradient id="grad1_1" x1="33.3%" y1="100%" x2="100%" y2="0%"><stop offset="20%" stop-color="#c1e0b6" stop-opacity="1"></stop><stop offset="80%" stop-color="#cbefc3" stop-opacity="1"></stop></linearGradient></defs><defs><linearGradient id="grad1_2" x1="33.3%" y1="100%" x2="100%" y2="0%"><stop offset="20%" stop-color="#d5ffd1" stop-opacity="1"></stop><stop offset="80%" stop-color="#cbefc3" stop-opacity="1"></stop></linearGradient></defs><defs><linearGradient id="grad2_0" x1="0%" y1="100%" x2="66.7%" y2="0%"><stop offset="20%" stop-color="#c1e0b6" stop-opacity="1"></stop><stop offset="80%" stop-color="#c1e0b6" stop-opacity="1"></stop></linearGradient></defs><defs><linearGradient id="grad2_1" x1="0%" y1="100%" x2="66.7%" y2="0%"><stop offset="20%" stop-color="#cbefc3" stop-opacity="1"></stop><stop offset="80%" stop-color="#c1e0b6" stop-opacity="1"></stop></linearGradient></defs><defs><linearGradient id="grad2_2" x1="0%" y1="100%" x2="66.7%" y2="0%"><stop offset="20%" stop-color="#cbefc3" stop-opacity="1"></stop><stop offset="80%" stop-color="#d5ffd1" stop-opacity="1"></stop></linearGradient></defs><g transform="translate(900, 600)"><path d="M-351.5 0C-346.2 -29.8 -340.8 -59.7 -334.2 -89.6C-327.6 -119.5 -319.8 -149.4 -304.4 -175.8C-289.1 -202.1 -266.1 -224.8 -240.4 -240.4C-214.7 -256 -186.2 -264.5 -161 -278.9C-135.8 -293.2 -113.8 -313.4 -87.5 -326.5C-61.2 -339.6 -30.6 -345.6 0 -351.5L0 0Z" fill="#d0f7ca"></path><path d="M-234.4 0C-230.8 -19.9 -227.2 -39.8 -222.8 -59.7C-218.4 -79.6 -213.2 -99.6 -203 -117.2C-192.7 -134.7 -177.4 -149.9 -160.3 -160.3C-143.1 -170.7 -124.2 -176.3 -107.3 -185.9C-90.5 -195.5 -75.8 -208.9 -58.3 -217.7C-40.8 -226.4 -20.4 -230.4 0 -234.4L0 0Z" fill="#c6e8bd"></path><path d="M-117.2 0C-115.4 -9.9 -113.6 -19.9 -111.4 -29.9C-109.2 -39.8 -106.6 -49.8 -101.5 -58.6C-96.4 -67.4 -88.7 -74.9 -80.1 -80.1C-71.6 -85.3 -62.1 -88.2 -53.7 -93C-45.3 -97.7 -37.9 -104.5 -29.2 -108.8C-20.4 -113.2 -10.2 -115.2 0 -117.2L0 0Z" fill="#c1e0b6"></path></g><g transform="translate(0, 0)"><path d="M351.5 0C331.2 25.9 310.9 51.7 304.3 81.5C297.6 111.3 304.6 145 292.7 169C280.8 193 250 207.3 227.7 227.7C205.4 248.1 191.7 274.5 170.5 295.3C149.3 316.1 120.6 331.1 91 339.6C61.3 348 30.7 349.8 0 351.5L0 0Z" fill="#d0f7ca"></path><path d="M234.4 0C220.8 17.2 207.3 34.5 202.8 54.4C198.4 74.2 203.1 96.7 195.1 112.7C187.2 128.7 166.6 138.2 151.8 151.8C136.9 165.4 127.8 183 113.7 196.9C99.5 210.7 80.4 220.8 60.7 226.4C40.9 232 20.4 233.2 0 234.4L0 0Z" fill="#c6e8bd"></path><path d="M117.2 0C110.4 8.6 103.6 17.2 101.4 27.2C99.2 37.1 101.5 48.3 97.6 56.3C93.6 64.3 83.3 69.1 75.9 75.9C68.5 82.7 63.9 91.5 56.8 98.4C49.8 105.4 40.2 110.4 30.3 113.2C20.4 116 10.2 116.6 0 117.2L0 0Z" fill="#c1e0b6"></path></g></svg>