<svg xmlns="http://www.w3.org/2000/svg" version="1.1" xmlns:xlink="http://www.w3.org/1999/xlink" xmlns:svgjs="http://svgjs.dev/svgjs" width="1440" height="560" preserveAspectRatio="none" viewBox="0 0 1440 560"><g mask="url(&quot;#SvgjsMask1108&quot;)" fill="none"><path d="M1512 560L0 560 L0 312.84Q33.12 273.96, 72 307.08Q147.94 263.02, 192 338.96Q247.04 322, 264 377.04Q292.4 333.44, 336 361.84Q379.5 285.33, 456 328.83Q499.89 252.72, 576 296.61Q669.62 270.23, 696 363.85Q744.56 292.41, 816 340.97Q866.47 271.44, 936 321.91Q1011.89 277.8, 1056 353.69Q1058.3 283.99, 1128 286.29Q1189.77 276.06, 1200 337.83Q1271.01 288.83, 1320 359.84Q1354.21 274.05, 1440 308.26Q1485.95 282.22, 1512 328.17z" fill="rgba(130, 12, 53, 1)"></path><path d="M1488 560L0 560 L0 359.19Q60.82 300.01, 120 360.84Q180.99 349.83, 192 410.82Q218.16 364.98, 264 391.14Q339.66 346.8, 384 422.46Q426.32 392.78, 456 435.11Q456.13 363.24, 528 363.36Q557.91 321.27, 600 351.19Q705.59 336.77, 720 442.36Q772.9 375.26, 840 428.16Q873.57 341.73, 960 375.3Q1034.05 329.35, 1080 403.39Q1133.83 385.22, 1152 439.05Q1158.09 373.14, 1224 379.23Q1253.53 336.76, 1296 366.3Q1369.85 320.15, 1416 394Q1466.57 372.57, 1488 423.14z" fill="rgba(161, 11, 65, 1)"></path><path d="M1488 560L0 560 L0 453.93Q72.58 406.51, 120 479.09Q131 418.09, 192 429.09Q265.34 382.43, 312 455.78Q353.68 425.46, 384 467.14Q429.31 440.45, 456 485.77Q529.58 439.34, 576 512.92Q607.66 424.57, 696 456.23Q749.13 389.36, 816 442.49Q842.89 397.38, 888 424.28Q945.32 409.6, 960 466.91Q1001.64 436.56, 1032 478.2Q1078.09 452.29, 1104 498.38Q1119.51 441.89, 1176 457.4Q1223.91 385.31, 1296 433.22Q1392.77 409.99, 1416 506.76Q1443.76 462.52, 1488 490.29z" fill="rgba(204, 2, 65, 1)"></path><path d="M1488 560L0 560 L0 556.32Q27.98 464.3, 120 492.28Q186.11 438.38, 240 504.49Q333.67 478.16, 360 571.83Q399.11 490.94, 480 530.05Q530.26 508.31, 552 558.57Q601.58 536.15, 624 585.73Q678.69 520.42, 744 575.11Q789.36 500.47, 864 545.82Q896.97 458.79, 984 491.75Q1050.94 438.69, 1104 505.63Q1153.97 483.6, 1176 533.57Q1224.86 510.43, 1248 559.29Q1318.78 510.07, 1368 580.84Q1401.62 494.46, 1488 528.07z" fill="rgba(246, 0, 65, 1)"></path></g><defs><mask id="SvgjsMask1108"><rect width="1440" height="560" fill="#ffffff"></rect></mask></defs></svg>