<svg id="visual" viewBox="0 0 900 600" width="900" height="600" xmlns="http://www.w3.org/2000/svg" xmlns:xlink="http://www.w3.org/1999/xlink" version="1.1"><rect x="0" y="0" width="900" height="600" fill="#001220"></rect><defs><linearGradient id="grad1_0" x1="33.3%" y1="100%" x2="100%" y2="0%"><stop offset="20%" stop-color="#009473" stop-opacity="1"></stop><stop offset="80%" stop-color="#009473" stop-opacity="1"></stop></linearGradient></defs><defs><linearGradient id="grad1_1" x1="33.3%" y1="100%" x2="100%" y2="0%"><stop offset="20%" stop-color="#009473" stop-opacity="1"></stop><stop offset="80%" stop-color="#00505e" stop-opacity="1"></stop></linearGradient></defs><defs><linearGradient id="grad1_2" x1="33.3%" y1="100%" x2="100%" y2="0%"><stop offset="20%" stop-color="#001220" stop-opacity="1"></stop><stop offset="80%" stop-color="#00505e" stop-opacity="1"></stop></linearGradient></defs><defs><linearGradient id="grad2_0" x1="0%" y1="100%" x2="66.7%" y2="0%"><stop offset="20%" stop-color="#009473" stop-opacity="1"></stop><stop offset="80%" stop-color="#009473" stop-opacity="1"></stop></linearGradient></defs><defs><linearGradient id="grad2_1" x1="0%" y1="100%" x2="66.7%" y2="0%"><stop offset="20%" stop-color="#00505e" stop-opacity="1"></stop><stop offset="80%" stop-color="#009473" stop-opacity="1"></stop></linearGradient></defs><defs><linearGradient id="grad2_2" x1="0%" y1="100%" x2="66.7%" y2="0%"><stop offset="20%" stop-color="#00505e" stop-opacity="1"></stop><stop offset="80%" stop-color="#001220" stop-opacity="1"></stop></linearGradient></defs><g transform="translate(900, 600)"><path d="M-486.7 0C-494 -40.6 -501.2 -81.2 -474.5 -108.3C-447.9 -135.4 -387.4 -149.1 -362.2 -174.4C-337 -199.7 -347 -236.6 -343.2 -273.7C-339.4 -310.8 -321.7 -348.1 -290.5 -364.3C-259.4 -380.6 -214.8 -375.9 -178.8 -371.2C-142.8 -366.5 -115.4 -361.9 -87 -381.2C-58.6 -400.5 -29.3 -443.6 0 -486.7L0 0Z" fill="#002f42"></path><path d="M-324.5 0C-329.3 -27.1 -334.1 -54.1 -316.4 -72.2C-298.6 -90.3 -258.3 -99.4 -241.5 -116.3C-224.6 -133.1 -231.4 -157.7 -228.8 -182.5C-226.3 -207.2 -214.5 -232 -193.7 -242.9C-172.9 -253.7 -143.2 -250.6 -119.2 -247.5C-95.2 -244.4 -76.9 -241.3 -58 -254.1C-39.1 -267 -19.5 -295.7 0 -324.5L0 0Z" fill="#00726f"></path><path d="M-162.2 0C-164.7 -13.5 -167.1 -27.1 -158.2 -36.1C-149.3 -45.1 -129.1 -49.7 -120.7 -58.1C-112.3 -66.6 -115.7 -78.9 -114.4 -91.2C-113.1 -103.6 -107.2 -116 -96.8 -121.4C-86.5 -126.9 -71.6 -125.3 -59.6 -123.7C-47.6 -122.2 -38.5 -120.6 -29 -127.1C-19.5 -133.5 -9.8 -147.9 0 -162.2L0 0Z" fill="#009473"></path></g><g transform="translate(0, 0)"><path d="M486.7 0C464.8 34.6 442.8 69.1 417.3 95.2C391.7 121.3 362.5 139 357.7 172.3C352.9 205.5 372.4 254.5 367.5 293C362.5 331.6 333 359.6 300.5 376.8C268.1 394 232.6 400.4 200.9 417.1C169.2 433.9 141.2 461.2 108.3 474.5C75.5 487.9 37.7 487.3 0 486.7L0 0Z" fill="#002f42"></path><path d="M324.5 0C309.9 23 295.2 46.1 278.2 63.5C261.1 80.9 241.7 92.6 238.5 114.8C235.2 137 248.3 169.7 245 195.4C241.7 221 222 239.8 200.3 251.2C178.7 262.7 155.1 266.9 133.9 278.1C112.8 289.3 94.1 307.5 72.2 316.4C50.3 325.3 25.2 324.9 0 324.5L0 0Z" fill="#00726f"></path><path d="M162.2 0C154.9 11.5 147.6 23 139.1 31.7C130.6 40.4 120.8 46.3 119.2 57.4C117.6 68.5 124.1 84.8 122.5 97.7C120.8 110.5 111 119.9 100.2 125.6C89.4 131.3 77.5 133.5 67 139C56.4 144.6 47.1 153.7 36.1 158.2C25.2 162.6 12.6 162.4 0 162.2L0 0Z" fill="#009473"></path></g></svg>