<svg id="visual" viewBox="0 0 900 600" width="900" height="600" xmlns="http://www.w3.org/2000/svg" xmlns:xlink="http://www.w3.org/1999/xlink" version="1.1"><path d="M0 79L82 67L164 55L245 67L327 37L409 61L491 37L573 31L655 43L736 79L818 43L900 79L900 0L818 0L736 0L655 0L573 0L491 0L409 0L327 0L245 0L164 0L82 0L0 0Z" fill="#00cc8e"></path><path d="M0 253L82 211L164 223L245 157L327 127L409 133L491 151L573 223L655 205L736 223L818 217L900 217L900 77L818 41L736 77L655 41L573 29L491 35L409 59L327 35L245 65L164 53L82 65L0 77Z" fill="#00c48c"></path><path d="M0 289L82 247L164 259L245 169L327 151L409 151L491 193L573 235L655 247L736 241L818 229L900 247L900 215L818 215L736 221L655 203L573 221L491 149L409 131L327 125L245 155L164 221L82 209L0 251Z" fill="#00bc8a"></path><path d="M0 343L82 301L164 325L245 223L327 187L409 211L491 259L573 301L655 307L736 283L818 283L900 289L900 245L818 227L736 239L655 245L573 233L491 191L409 149L327 149L245 167L164 257L82 245L0 287Z" fill="#00b388"></path><path d="M0 367L82 325L164 367L245 265L327 223L409 253L491 319L573 331L655 337L736 313L818 331L900 313L900 287L818 281L736 281L655 305L573 299L491 257L409 209L327 185L245 221L164 323L82 299L0 341Z" fill="#00ab85"></path><path d="M0 385L82 349L164 385L245 301L327 259L409 271L491 349L573 367L655 385L736 343L818 367L900 361L900 311L818 329L736 311L655 335L573 329L491 317L409 251L327 221L245 263L164 365L82 323L0 365Z" fill="#00a382"></path><path d="M0 415L82 391L164 439L245 325L327 313L409 331L491 367L573 397L655 427L736 379L818 403L900 403L900 359L818 365L736 341L655 383L573 365L491 347L409 269L327 257L245 299L164 383L82 347L0 383Z" fill="#009b7f"></path><path d="M0 505L82 517L164 541L245 451L327 535L409 523L491 481L573 499L655 517L736 469L818 487L900 469L900 401L818 401L736 377L655 425L573 395L491 365L409 329L327 311L245 323L164 437L82 389L0 413Z" fill="#00937b"></path><path d="M0 541L82 553L164 559L245 493L327 559L409 559L491 511L573 547L655 541L736 487L818 535L900 511L900 467L818 485L736 467L655 515L573 497L491 479L409 521L327 533L245 449L164 539L82 515L0 503Z" fill="#008b77"></path><path d="M0 601L82 601L164 601L245 601L327 601L409 601L491 601L573 601L655 601L736 601L818 601L900 601L900 509L818 533L736 485L655 539L573 545L491 509L409 557L327 557L245 491L164 557L82 551L0 539Z" fill="#038373"></path></svg>